<svg xmlns:xlink="http://www.w3.org/1999/xlink" xmlns="http://www.w3.org/2000/svg" width="100" zoomAndPan="magnify"
     viewBox="0 0 75 74.999997" height="100" preserveAspectRatio="xMidYMid meet" version="1.0">
    <defs>
        <clipPath id="4bdb52a277">
            <path d="M 51 3.039062 L 72.039062 3.039062 L 72.039062 24 L 51 24 Z M 51 3.039062 " clip-rule="nonzero"/>
        </clipPath>
        <clipPath id="5a562d0ca8">
            <path d="M 3.039062 3.039062 L 24 3.039062 L 24 24 L 3.039062 24 Z M 3.039062 3.039062 "
                  clip-rule="nonzero"/>
        </clipPath>
        <clipPath id="2a8f4b087b">
            <path d="M 51 51 L 72.039062 51 L 72.039062 72.039062 L 51 72.039062 Z M 51 51 " clip-rule="nonzero"/>
        </clipPath>
        <clipPath id="1d4eb96806">
            <path d="M 3.039062 51 L 24 51 L 24 72.039062 L 3.039062 72.039062 Z M 3.039062 51 " clip-rule="nonzero"/>
        </clipPath>
    </defs>
    <g clip-path="url(#4bdb52a277)">
        <path fill="#333333"
              d="M 62.433594 4.925781 C 66.699219 4.925781 70.152344 8.378906 70.152344 12.644531 L 70.152344 22.308594 C 70.152344 22.558594 70.253906 22.796875 70.429688 22.976562 C 71.023438 23.566406 72.035156 23.148438 72.035156 22.308594 L 72.035156 12.707031 C 72.035156 9.878906 70.824219 7.171875 68.675781 5.332031 C 66.945312 3.851562 64.769531 3.042969 62.464844 3.042969 L 52.769531 3.042969 C 51.929688 3.042969 51.511719 4.054688 52.105469 4.648438 C 52.28125 4.824219 52.519531 4.925781 52.769531 4.925781 L 62.4375 4.925781 Z M 62.433594 4.925781 "
              fill-opacity="1" fill-rule="nonzero"/>
    </g>
    <g clip-path="url(#5a562d0ca8)">
        <path fill="#333333"
              d="M 4.925781 12.644531 C 4.925781 8.378906 8.378906 4.925781 12.644531 4.925781 L 22.308594 4.925781 C 22.558594 4.925781 22.796875 4.824219 22.976562 4.648438 C 23.566406 4.054688 23.148438 3.042969 22.308594 3.042969 L 12.707031 3.042969 C 9.878906 3.042969 7.171875 4.25 5.332031 6.402344 C 3.851562 8.132812 3.042969 10.308594 3.042969 12.613281 L 3.042969 22.308594 C 3.042969 23.148438 4.054688 23.566406 4.648438 22.972656 C 4.824219 22.796875 4.925781 22.558594 4.925781 22.308594 L 4.925781 12.640625 Z M 4.925781 12.644531 "
              fill-opacity="1" fill-rule="nonzero"/>
    </g>
    <g clip-path="url(#2a8f4b087b)">
        <path fill="#333333"
              d="M 70.152344 52.769531 L 70.152344 62.433594 C 70.152344 66.699219 66.699219 70.152344 62.433594 70.152344 L 52.769531 70.152344 C 52.519531 70.152344 52.277344 70.253906 52.101562 70.429688 C 51.511719 71.023438 51.929688 72.035156 52.769531 72.035156 L 62.464844 72.035156 C 65.019531 72.035156 67.425781 71.039062 69.230469 69.230469 C 71.039062 67.425781 72.035156 65.023438 72.035156 62.464844 L 72.035156 52.769531 C 72.035156 51.929688 71.019531 51.511719 70.429688 52.105469 C 70.25 52.28125 70.152344 52.519531 70.152344 52.769531 Z M 70.152344 52.769531 "
              fill-opacity="1" fill-rule="nonzero"/>
    </g>
    <g clip-path="url(#1d4eb96806)">
        <path fill="#333333"
              d="M 12.644531 70.152344 C 8.378906 70.152344 4.925781 66.699219 4.925781 62.433594 L 4.925781 52.769531 C 4.925781 52.519531 4.824219 52.277344 4.648438 52.101562 C 4.054688 51.511719 3.042969 51.929688 3.042969 52.769531 L 3.042969 62.464844 C 3.042969 65.019531 4.039062 67.425781 5.84375 69.230469 C 7.652344 71.039062 10.054688 72.035156 12.613281 72.035156 L 22.308594 72.035156 C 23.148438 72.035156 23.566406 71.019531 22.972656 70.429688 C 22.796875 70.25 22.558594 70.152344 22.308594 70.152344 L 12.640625 70.152344 Z M 12.644531 70.152344 "
              fill-opacity="1" fill-rule="nonzero"/>
    </g>
</svg>